<svg height="464pt" viewBox="-40 0 464 464" width="464pt" xmlns="http://www.w3.org/2000/svg">
    <g fill="#b25fe4">
        <path d="m344 0h16v80h-16zm0 0" />
        <path d="m360 376h-48v-16h32v-48h16zm0 0" />
        <path d="m72 360h16v16h-16zm0 0" />
        <path d="m104 360h16v16h-16zm0 0" />
    </g>
    <path d="m0 416v32l48 16h336v-64h-336zm0 0" fill="#dce9ef" />
    <path d="m48 0h336v400h-336zm0 0" fill="#8d28ad" />
    <path d="m352 448-32-24-32 24v-48h64zm0 0" fill="#d9176c" />
    <path d="m48 424h240v16h-240zm0 0" fill="#58b1cc" />
    <path d="m352 424h32v16h-32zm0 0" fill="#58b1cc" />
    <path d="m48 0v400l-48 16v-400zm0 0" fill="#b25fe4" />
    <path d="m128 112 88-48 88 48 24 88-56 80h-112l-56-80zm0 0" fill="#fcf05a" />
    <path
        d="m256 256c-1.015625.003906-2.023438-.191406-2.96875-.566406l-37.03125-14.816406-37.03125 14.816406c-2.203125.878906-4.683594.734375-6.769531-.390625-2.085938-1.125-3.566407-3.121094-4.039063-5.441407l-6.113281-30.53125-29.015625-11.605468c-2.328125-.929688-4.082031-2.898438-4.746094-5.3125-.664062-2.417969-.15625-5.003906 1.371094-6.992188l21.910156-28.488281-7.40625-37.070313c-.480468-2.355468.121094-4.800781 1.640625-6.660156 1.519531-1.863281 3.796875-2.941406 6.199219-2.941406h35.449219l22.207031-28.871094c1.574219-1.875 3.894531-2.960937 6.34375-2.960937s4.769531 1.085937 6.34375 2.960937l22.207031 28.871094h35.449219c2.402344 0 4.679688 1.078125 6.199219 2.941406 1.519531 1.859375 2.121093 4.304688 1.640625 6.660156l-7.40625 37.070313 21.910156 28.488281c1.527344 1.988282 2.035156 4.574219 1.371094 6.992188-.664063 2.414062-2.417969 4.382812-4.746094 5.3125l-29.015625 11.574218-6.113281 30.5625c-.761719 3.722657-4.039063 6.398438-7.839844 6.398438zm-18.464844-24 12.503906 5 2.175782-10.863281zm-57.75-5.863281 2.175782 10.863281 12.503906-5zm-3.746094-18.738281 40 16 39.960938-16 7.351562-36.796876-26.671874-34.601562h-41.359376l-26.632812 34.632812zm100.226563-19.925782-2.570313 12.800782 9.511719-3.808594zm-127.464844 9.023438 9.511719 3.808594-2.570312-12.800782zm108.054688-60.496094 10.632812 13.808594 2.75-13.808594zm-95.09375 0 2.75 13.808594 10.632812-13.808594zm45.871093-16h16.734376l-8.367188-10.878906zm0 0"
        fill="#e97424" />
    <path d="m48 96v-96h96zm0 0" fill="#5c067c" />
    <path d="m312 0h16v64h-16zm0 0" fill="#b25fe4" />
    <path d="m344 96h16v16h-16zm0 0" fill="#b25fe4" />
    <path d="m26.558594 79.601562-26.558594 7.4375v-16.878906l20.480469-5.761718zm0 0"
        fill="#5c067c" />
    <path d="m26.558594 111.601562-26.558594 7.4375v-16.878906l20.480469-5.761718zm0 0"
        fill="#5c067c" />
</svg>